<svg width="150" height="41" viewBox="0 0 150 41" fill="none" xmlns="http://www.w3.org/2000/svg">
<g id="Group">
<g id="Group_2">
<g id="Group_3">
<g id="Group_4">
<g id="Group_5">
<path id="Vector" d="M64.1472 26.6282H58.3045V25.0172C57.6467 25.6523 57.0044 26.1067 56.3723 26.3855C55.7402 26.6644 54.918 26.8089 53.9057 26.8089C51.9273 26.8089 50.3548 26.2255 49.1884 25.0533C48.0321 23.8967 47.4566 22.3579 47.4566 20.4319C47.4566 19.3837 47.693 18.4284 48.1709 17.5661C48.6488 16.7089 49.3888 16.017 50.396 15.4903C51.4031 14.9636 52.657 14.7003 54.1575 14.7003H58.1452V14.1994C58.1452 13.2906 57.9139 12.6555 57.4566 12.294C56.9992 11.9274 56.2387 11.7467 55.175 11.7467C54.435 11.7467 53.8492 11.8448 53.4124 12.0307C52.9756 12.2217 52.5131 12.5625 52.0249 13.0531L48.2891 9.30944C49.3117 8.29737 50.3497 7.60028 51.3877 7.23366C52.4309 6.86188 53.7927 6.68115 55.473 6.68115C58.3096 6.68115 60.4627 7.27497 61.9324 8.4626C63.4021 9.65023 64.142 11.4368 64.142 13.8276V26.6282H64.1472ZM58.14 19.2288V18.7279H55.103C54.5326 18.7279 54.0701 18.8725 53.7259 19.1565C53.3816 19.4405 53.2068 19.8226 53.2068 20.2976C53.2068 20.7623 53.3816 21.1496 53.7259 21.4646C54.0701 21.7796 54.5532 21.9345 55.175 21.9345C55.7608 21.9345 56.2233 21.888 56.5676 21.8002C56.9119 21.7125 57.2459 21.5111 57.5696 21.2013C57.9499 20.8398 58.14 20.1789 58.14 19.2288Z" fill="#3074BB"/>
</g>
<g id="Group_6">
<path id="Vector_2" d="M85.2057 26.6282H79.1986V14.8293C79.1986 13.8173 78.9416 13.1099 78.4226 12.7071C77.9036 12.3095 77.3589 12.1081 76.7885 12.1081C76.2181 12.1081 75.6734 12.3095 75.1544 12.7174C74.6354 13.1254 74.3785 13.8276 74.3785 14.8293V26.6282H68.3713V6.89803H74.2346V8.50908C74.805 7.93591 75.5141 7.48668 76.3517 7.16653C77.1893 6.84639 78.0115 6.68115 78.808 6.68115C80.6323 6.68115 82.1019 7.24399 83.2222 8.36449C83.9981 9.11838 84.5223 9.94456 84.7946 10.8534C85.067 11.7622 85.2057 12.8104 85.2057 14.0032V26.6282Z" fill="#3074BB"/>
</g>
<g id="Group_7">
<path id="Vector_3" d="M106.403 26.6282H100.395V14.8293C100.395 13.8173 100.139 13.1099 99.6195 12.7071C99.1005 12.3095 98.5558 12.1081 97.9854 12.1081C97.415 12.1081 96.8703 12.3095 96.3513 12.7174C95.8323 13.1254 95.5753 13.8276 95.5753 14.8293V26.6282H89.5682V6.89803H95.4263V8.50908C95.9967 7.93591 96.7059 7.48668 97.5435 7.16653C98.3811 6.84639 99.2033 6.68115 99.9998 6.68115C101.824 6.68115 103.294 7.24399 104.414 8.36449C105.19 9.11838 105.714 9.94456 105.986 10.8534C106.259 11.7622 106.397 12.8104 106.397 14.0032V26.6282H106.403Z" fill="#3074BB"/>
</g>
<g id="Group_8">
<path id="Vector_4" d="M127.051 16.7605C127.051 18.7071 126.896 20.2304 126.588 21.3354C126.28 22.4404 125.72 23.4319 124.908 24.3148C123.325 25.9982 121.208 26.8398 118.561 26.8398C115.905 26.8398 113.793 25.9982 112.236 24.3148C111.701 23.7417 111.27 23.1169 110.951 22.4353C110.627 21.7537 110.401 20.974 110.273 20.0962C110.139 19.2183 110.077 18.1082 110.077 16.7553C110.077 15.4179 110.144 14.3129 110.273 13.4351C110.401 12.5573 110.632 11.7827 110.951 11.1063C111.275 10.4299 111.701 9.79473 112.236 9.20091C112.929 8.47284 113.793 7.8687 114.826 7.39364C115.864 6.91859 117.107 6.6759 118.561 6.6759C120.016 6.6759 121.264 6.91343 122.308 7.38332C123.351 7.85321 124.219 8.46251 124.908 9.20091C125.72 10.0839 126.28 11.0805 126.588 12.1906C126.891 13.306 127.051 14.8293 127.051 16.7605ZM121.043 16.7605C121.043 15.6141 120.987 14.726 120.874 14.1012C120.761 13.4764 120.524 12.9962 120.17 12.6605C119.81 12.2888 119.276 12.108 118.561 12.108C117.857 12.108 117.323 12.2939 116.953 12.6605C116.593 13.0168 116.362 13.528 116.249 14.1941C116.136 14.8551 116.079 15.7122 116.079 16.7656C116.079 17.819 116.136 18.6658 116.249 19.3164C116.362 19.9671 116.598 20.4834 116.953 20.8655C117.323 21.2373 117.857 21.418 118.561 21.418C119.276 21.418 119.81 21.2373 120.17 20.8707C120.53 20.5092 120.761 20.0187 120.874 19.4042C120.987 18.7898 121.043 17.9068 121.043 16.7605Z" fill="#3074BB"/>
</g>
<g id="Group_9">
<path id="Vector_5" d="M140.812 12.2836H137.523V26.623H131.516V12.2836H129.712V7.66217H131.516V5.94268C131.516 4.98741 131.732 4.05796 132.168 3.15949C132.605 2.25585 133.278 1.52262 134.198 0.959786C135.118 0.391787 136.259 0.107788 137.631 0.107788H140.812V5.1733H138.72C137.924 5.1733 137.523 5.58123 137.523 6.39192V7.66217H140.812V12.2836Z" fill="#3074BB"/>
</g>
<g id="Group_10">
<path id="Vector_6" d="M150 4.88937H143.992V0.304077H150V4.88937ZM150 26.6282H143.992V7.6674H150V26.6282Z" fill="#3074BB"/>
</g>
</g>
<g id="Group_11">
<g id="Group_12">
<path id="Vector_7" d="M17.6475 3.32994C17.5088 3.10791 17.3444 2.92201 17.1645 2.75161C16.9487 2.50376 16.702 2.27656 16.404 2.10616C14.9703 1.27482 13.1357 1.77053 12.3084 3.20601L0.401986 23.8553C-0.425349 25.2908 0.0679685 27.1291 1.49653 27.9552C2.93024 28.7866 4.76476 28.2909 5.59209 26.8554L15.0371 10.4712L25.1809 26.7315C26.0596 28.136 27.9044 28.5646 29.3124 27.6867C30.7153 26.8089 31.1418 24.9552 30.2631 23.5507L17.6475 3.32994Z" fill="#3074BB"/>
</g>
<g id="Group_13">
<path id="Vector_8" d="M42.5085 23.4319L30.0368 3.44865C29.1581 2.04415 27.3081 1.61557 25.9053 2.49338C24.5024 3.3712 24.0759 5.22494 24.9546 6.62944L37.4263 26.6127C38.305 28.0172 40.1549 28.4457 41.5578 27.5679C42.9607 26.6901 43.3872 24.8364 42.5085 23.4319Z" fill="#3074BB"/>
</g>
</g>
</g>
</g>
<g id="Group_14">
<path id="Vector_9" d="M1.13052 40.7942H0V33.4205H1.13052V40.7942Z" fill="#333333"/>
<path id="Vector_10" d="M10.6578 40.7942H9.64546L6.24876 35.6047V40.7942H5.11825V33.4205H6.13057L9.52727 38.61V33.4205H10.6321V40.7942H10.6578Z" fill="#333333"/>
<path id="Vector_11" d="M19.2287 38.703C19.2287 39.0386 19.167 39.3174 19.0437 39.5963C18.9204 39.8751 18.7354 40.0868 18.4938 40.3037C18.2472 40.4896 17.9748 40.6393 17.6665 40.7323C17.3582 40.8252 16.9933 40.8872 16.5925 40.8872C16.0427 40.8872 15.5494 40.8252 15.1228 40.6703C14.6963 40.5154 14.3263 40.2727 13.9923 39.9319L14.7272 39.1935C14.8813 39.3794 15.0663 39.4982 15.277 39.6221C15.462 39.746 15.6727 39.808 15.8885 39.839C16.1043 39.8699 16.3459 39.9009 16.5925 39.9009C17.0807 39.9009 17.4507 39.808 17.6973 39.5963C17.944 39.3794 18.093 39.1057 18.093 38.7649C18.093 38.4241 18.0005 38.1814 17.7847 37.9956C17.6922 37.9026 17.5997 37.8406 17.4764 37.8097C17.353 37.7787 17.1989 37.7167 16.9882 37.6857L16.13 37.5618C15.5185 37.4689 15.056 37.283 14.722 36.9783C14.3572 36.6427 14.203 36.178 14.203 35.5635C14.203 35.1349 14.2955 34.7631 14.5113 34.4275C14.6963 34.0919 14.9995 33.844 15.3695 33.6581C15.7343 33.4722 16.166 33.3793 16.685 33.3793C17.1732 33.3793 17.6048 33.4412 17.9697 33.5961C18.3345 33.7201 18.6737 33.9318 18.982 34.2416L18.278 34.949C18.1239 34.7941 17.9697 34.7012 17.8207 34.6134C17.6665 34.5204 17.4815 34.4585 17.3017 34.4275C17.1167 34.3965 16.906 34.3655 16.6901 34.3655C16.4127 34.3655 16.1711 34.4275 15.9553 34.5204C15.7395 34.6134 15.5905 34.7683 15.498 34.918C15.3746 35.1039 15.3438 35.2847 15.3438 35.5015C15.3438 35.8062 15.4363 36.0231 15.6213 36.178C15.7138 36.2709 15.8371 36.3329 15.9861 36.3948C16.1403 36.4568 16.2945 36.4878 16.4435 36.5188L17.2708 36.6427C17.61 36.7046 17.8823 36.7666 18.0982 36.8596C18.314 36.9525 18.4938 37.0454 18.648 37.1952C19.0437 37.536 19.2287 38.0317 19.2287 38.703Z" fill="#333333"/>
<path id="Vector_12" d="M27.9234 35.6616C27.9234 36.0902 27.8309 36.462 27.6459 36.7976C27.4609 37.1333 27.1886 37.4121 26.8186 37.598C26.4538 37.7839 26.0529 37.8768 25.5956 37.8768H23.9409V40.7633H22.8104V33.3896H25.5956C25.9347 33.3896 26.2688 33.4516 26.5771 33.5755C26.8854 33.6995 27.1269 33.8544 27.3428 34.0351C27.5586 34.252 27.7076 34.4637 27.8001 34.7425C27.8926 35.0214 27.9234 35.326 27.9234 35.6616ZM26.8237 35.6616C26.8237 35.264 26.7004 34.9852 26.4589 34.7683C26.2122 34.5515 25.9091 34.4327 25.5082 34.4327H23.9152V36.8906H25.5082C25.9039 36.8906 26.2122 36.7667 26.4589 36.5549C26.7004 36.3381 26.8237 36.0334 26.8237 35.6616Z" fill="#333333"/>
<path id="Vector_13" d="M32.487 40.7942H31.3565V33.4205H32.487V40.7942Z" fill="#333333"/>
<path id="Vector_14" d="M41.7933 40.7942H40.5086L38.9773 37.6908H37.6001V40.7942H36.4696V33.4205H39.3165C39.7738 33.4205 40.1746 33.5135 40.5086 33.6994C40.8478 33.8853 41.1202 34.128 41.3052 34.4687C41.4901 34.8044 41.5826 35.1762 41.5826 35.5738C41.5826 36.0643 41.4593 36.4929 41.187 36.8337C40.9095 37.1693 40.5755 37.4172 40.1438 37.5411L41.7933 40.7942ZM40.4778 35.6047C40.4778 35.2381 40.3545 34.9593 40.1387 34.7424C39.9228 34.5255 39.6197 34.4378 39.2188 34.4378H37.5642V36.7407H39.2188C39.5837 36.7407 39.892 36.6478 40.1387 36.4361C40.3545 36.2192 40.4778 35.9404 40.4778 35.6047Z" fill="#333333"/>
<path id="Vector_15" d="M49.9689 40.7942H45.2515V33.4205H49.9689V34.4326H46.3872V36.5807H49.4498V37.5618H46.3872V39.7718H49.9689V40.7942Z" fill="#333333"/>
<path id="Vector_16" d="M58.7868 37.0454V37.412C58.7868 37.8096 58.7868 38.1504 58.7251 38.4551C58.6943 38.7597 58.6326 39.0385 58.5093 39.3174C58.386 39.5962 58.2318 39.8699 58.0211 40.0868C57.5638 40.5463 56.9163 40.7942 56.1249 40.7942H53.5504V33.4205H56.1249C56.9214 33.4205 57.5638 33.6684 58.0211 34.1279C58.2369 34.3448 58.4168 34.5875 58.5093 34.8663C58.6326 35.1452 58.6943 35.4189 58.7251 35.6977C58.7559 35.9765 58.7868 36.3122 58.7868 36.6788V37.0454ZM57.6871 37.0764C57.6871 36.6478 57.6871 36.338 57.6563 36.0953C57.6563 35.8474 57.5946 35.6357 57.5329 35.4498C57.4713 35.2639 57.3788 35.0832 57.2554 34.9593C56.9471 34.6237 56.5206 34.4687 56.0016 34.4687H54.6552V39.8441H56.0016C56.5206 39.8441 56.9523 39.6892 57.2554 39.3535C57.4404 39.1676 57.5329 38.894 57.5946 38.5842C57.6563 38.2743 57.6871 37.6908 57.6871 37.0764Z" fill="#333333"/>
<path id="Vector_17" d="M71.5566 34.4326H69.5371V40.789H68.4323V34.4326H66.4128V33.4205H71.5875V34.4326H71.5566Z" fill="#333333"/>
<path id="Vector_18" d="M79.9121 37.1074C79.9121 37.6909 79.9121 38.1195 79.8813 38.4603C79.8504 38.765 79.7888 39.0438 79.6963 39.3226C79.6038 39.6015 79.4188 39.8441 79.2081 40.092C78.6891 40.6135 78.0467 40.8924 77.2811 40.8924C76.5154 40.8924 75.8731 40.6445 75.354 40.123C75.1382 39.8751 74.9584 39.6324 74.8659 39.3536C74.7734 39.0748 74.7117 38.8011 74.6809 38.4913C74.65 38.1866 74.65 37.7219 74.65 37.1384C74.65 36.6788 74.65 36.338 74.6809 36.0644C74.6809 35.7855 74.7117 35.5738 74.7734 35.326C74.835 35.0781 74.8967 34.8974 74.9892 34.7115C75.0817 34.5256 75.2358 34.3449 75.3849 34.159C75.9039 33.6375 76.5462 33.3586 77.3119 33.3586C78.0776 33.3586 78.7199 33.6375 79.2389 34.159C79.4547 34.4069 79.6346 34.6495 79.7271 34.9284C79.8196 35.2072 79.8813 35.4809 79.9121 35.7907C79.9121 36.0954 79.9121 36.5239 79.9121 37.1074ZM78.8124 37.1074C78.8124 36.369 78.7816 35.8475 78.7199 35.5738C78.6582 35.2692 78.5349 35.0213 78.3807 34.8354C78.2574 34.7115 78.1033 34.5876 77.8926 34.4998C77.6767 34.4069 77.4969 34.3759 77.2811 34.3759C77.0652 34.3759 76.8545 34.4069 76.6696 34.4998C76.4846 34.5927 76.2996 34.6857 76.1814 34.8354C75.9964 35.0213 75.8731 35.295 75.8114 35.5738C75.7497 35.8785 75.7189 36.3742 75.7189 37.1074C75.7189 37.505 75.7189 37.8148 75.7189 38.0266C75.7189 38.2744 75.7497 38.4551 75.7806 38.641C75.8114 38.8269 75.8422 38.9457 75.9039 39.0386C75.9347 39.1316 76.0272 39.2555 76.1197 39.3743C76.243 39.5292 76.428 39.6221 76.6079 39.7099C76.7929 39.8028 77.0036 39.8338 77.2194 39.8338C77.6459 39.8338 78.0159 39.6789 78.3242 39.3743C78.4475 39.2503 78.54 39.0954 78.6017 38.9147C78.6634 38.7288 78.6942 38.5171 78.725 38.2383C78.7507 37.9698 78.8124 37.598 78.8124 37.1074Z" fill="#333333"/>
<path id="Vector_19" d="M89.2854 40.7942H88.1548V33.4205H89.2854V40.7942Z" fill="#333333"/>
<path id="Vector_20" d="M98.807 40.7942H97.7946L94.398 35.6047V40.7942H93.2674V33.4205H94.2798L97.6765 38.61V33.4205H98.7813V40.7942H98.807Z" fill="#333333"/>
<path id="Vector_21" d="M108.329 40.7942H107.317L103.92 35.6047V40.7942H102.79V33.4205H103.802L107.199 38.61V33.4205H108.303V40.7942H108.329Z" fill="#333333"/>
<path id="Vector_22" d="M117.327 37.1074C117.327 37.6909 117.327 38.1195 117.296 38.4603C117.266 38.765 117.204 39.0438 117.111 39.3226C117.019 39.6015 116.834 39.8441 116.623 40.092C116.104 40.6135 115.462 40.8924 114.696 40.8924C113.931 40.8924 113.288 40.6445 112.769 40.123C112.553 39.8751 112.374 39.6324 112.281 39.3536C112.189 39.0748 112.127 38.8011 112.096 38.4913C112.065 38.1815 112.065 37.7219 112.065 37.1384C112.065 36.6788 112.065 36.338 112.096 36.0644C112.096 35.7855 112.127 35.5738 112.189 35.326C112.25 35.0781 112.312 34.8974 112.404 34.7115C112.497 34.5256 112.651 34.3449 112.8 34.159C113.319 33.6375 113.961 33.3586 114.727 33.3586C115.493 33.3586 116.135 33.6375 116.654 34.159C116.87 34.4069 117.05 34.6495 117.142 34.9284C117.235 35.2072 117.296 35.4809 117.327 35.7907C117.327 36.0954 117.327 36.5239 117.327 37.1074ZM116.228 37.1074C116.228 36.369 116.197 35.8475 116.135 35.5738C116.073 35.2692 115.95 35.0213 115.796 34.8354C115.673 34.7115 115.518 34.5876 115.308 34.4998C115.092 34.4069 114.912 34.3759 114.696 34.3759C114.48 34.3759 114.27 34.4069 114.085 34.4998C113.9 34.5927 113.715 34.6857 113.597 34.8354C113.412 35.0213 113.288 35.295 113.227 35.5738C113.165 35.8785 113.134 36.3742 113.134 37.1074C113.134 37.505 113.134 37.8148 113.134 38.0266C113.134 38.2744 113.165 38.4551 113.196 38.641C113.227 38.8269 113.257 38.9457 113.319 39.0386C113.35 39.1316 113.442 39.2555 113.535 39.3743C113.658 39.5292 113.843 39.6221 114.023 39.7099C114.208 39.8028 114.419 39.8338 114.635 39.8338C115.061 39.8338 115.431 39.6789 115.739 39.3743C115.863 39.2503 115.955 39.0954 116.017 38.9147C116.079 38.7288 116.109 38.5171 116.14 38.2383C116.171 37.9594 116.228 37.598 116.228 37.1074Z" fill="#333333"/>
<path id="Vector_23" d="M125.873 33.4205L123.452 40.7942H122.563L120.143 33.4205H121.304L122.99 38.7959L124.675 33.4205H125.873Z" fill="#333333"/>
<path id="Vector_24" d="M134.352 40.7942H133.16L132.671 39.3174H129.763L129.244 40.7942H128.052L130.744 33.4205H131.633L134.352 40.7942ZM132.363 38.3673L131.263 35.109L130.133 38.3673H132.363Z" fill="#333333"/>
<path id="Vector_25" d="M141.978 34.4326H139.958V40.789H138.853V34.4326H136.803V33.4205H141.978V34.4326Z" fill="#333333"/>
<path id="Vector_26" d="M149.999 40.7942H145.282V33.4205H149.999V34.4326H146.417V36.5807H149.48V37.5618H146.417V39.7718H149.999V40.7942Z" fill="#333333"/>
</g>
</g>
</svg>
